<svg width="128" height="128" viewBox="0 0 128 128" fill="none" xmlns="http://www.w3.org/2000/svg">
<g clip-path="url(#clip0_325_10580)">
<path d="M72.7441 52.0435C70.2446 46.5497 68.9801 40.1446 69.0379 33.3881C69.0857 28.181 69.8109 18.7978 70.2821 17.4442C71.0163 15.335 67.5345 13.17 66.1099 17.2624C65.3757 19.3716 59.7276 31.1353 52.9559 37.0018C46.5251 42.5988 44.3578 43.8565 41.1396 44.0774C39.3039 44.1796 39.3806 44.7707 41.3732 46.3467C46.2973 50.2491 47.1829 55.8164 46.0267 75.4616C45.3696 86.8803 47.305 87.2011 52.7379 76.5625C58.1173 65.9759 68.1153 55.3029 72.5955 55.3095C74.0711 55.329 74.0752 55.0128 72.7441 52.0435ZM52.5307 67.5254L50.9463 70.1504C50.9246 69.4017 52.4834 54.3791 48.0156 48.659C46.7922 47.1037 46.6514 46.5958 47.5643 46.9136C50.492 47.9327 57.7634 41.7461 61.7567 34.7359C63.6123 31.5347 63.7506 31.4416 63.8239 33.8672C63.9348 39.0236 65.2353 44.3118 67.6841 49.6467L69.2819 53.1681C68.7932 53.4568 60.7458 53.7611 52.5307 67.5254Z" fill="#F07032"/>
<path d="M82.5326 97.0282C78.9929 91.2782 77.8601 82.8722 79.9094 76.9853C80.808 74.4039 78.4069 70.2499 74.5628 77.1356C69.8217 85.6855 67.9172 87.8108 63.1215 90.1298C59.1857 92.0069 59.2199 91.807 62.5525 94.0966C65.6551 96.2355 66.6268 101.657 65.457 110.391C64.7316 115.821 68.4011 117.345 70.3557 112.237C73.1075 105.042 76.1897 101.562 80.8002 100.484C83.7297 99.7743 83.957 99.3241 82.5326 97.0282ZM78.1741 97.3819C76.9407 97.3761 73.0406 98.9476 71.9536 99.8398C70.4503 101.117 70.4817 101.128 69.9936 98.9811C69.5752 97.1412 67.9209 94.6947 66.5399 93.8963C65.4943 93.25 65.5476 93.1983 67.9981 92.0395C69.1754 91.4964 71.006 90.192 72.074 89.152C74.444 86.9063 74.244 86.8724 74.8416 89.5157C75.3106 91.5144 76.386 93.9002 77.9349 96.3453C78.3905 96.9628 78.4588 97.3751 78.1741 97.3819Z" fill="#F07032"/>
</g>
<defs>
<clipPath id="clip0_325_10580">
<rect width="100" height="100" fill="white" transform="translate(33.5498 0.212891) rotate(19.1934)"/>
</clipPath>
</defs>
</svg>
