<svg width="114" height="114" viewBox="0 0 114 114" fill="none" xmlns="http://www.w3.org/2000/svg">
<g clip-path="url(#clip0_339_15398)">
<path d="M47.051 32.4833C46.6635 32.6656 45.8771 34.9564 45.0109 38.421C42.0706 50.2736 41.4096 49.7493 42.2187 50.5585C43.0849 51.4247 43.2786 50.9802 45.5352 43.4355C47.9513 35.3439 48.4414 31.8678 47.051 32.4833Z" fill="black"/>
<path d="M33.6258 44.3814C33.3295 44.3814 33.2838 44.5867 33.2382 45.6808C33.1812 47.3105 34.1385 48.9744 34.7654 48.3476C35.2668 47.8234 34.2868 44.3814 33.6258 44.3814Z" fill="black"/>
<path d="M28.1098 46.1815C24.44 38.8648 22.9926 36.5057 21.9555 36.2435C21.1121 36.0156 21.2033 36.5626 22.3202 38.4317C23.2889 40.0159 24.9073 43.0474 26.423 46.0903C27.6653 48.5862 28.03 49.0877 28.748 49.4182C29.7509 49.8512 29.6027 49.1561 28.1098 46.1815Z" fill="black"/>
<path d="M58.801 38.7398C58.425 38.9107 56.4078 42.0903 55.3138 44.2101C55.0516 44.723 54.2767 45.9994 53.6043 47.0365C52.2822 49.0423 52.2479 49.1906 52.8975 49.8402C53.513 50.4557 53.4903 50.4783 55.5303 46.9567C59.0861 40.8253 60.1573 38.1358 58.801 38.7398Z" fill="black"/>
<path d="M33.3749 37.2238C33.4547 38.8992 33.033 39.8679 33.8764 40.7112C35.2326 42.0675 35.3807 42.0333 35.3921 38.7852C35.4149 32.7677 34.64 27.7987 33.637 27.5708C32.6683 27.3771 33.4775 30.9898 33.3749 37.2238Z" fill="black"/>
<path d="M77.1383 76.0185C78.7339 76.1553 80.0559 75.9729 80.4662 75.5626C81.036 74.9928 80.5005 74.1151 79.452 73.9556C72.5 72.8615 64.1462 73.078 64.2373 74.3317C64.3285 75.5625 65.434 75.8019 71.2578 75.8588C73.822 75.893 76.4659 75.9615 77.1383 76.0185Z" fill="black"/>
<path d="M70.3802 50.9575C68.8758 51.7553 65.7987 54.103 58.6416 58.411C57.217 59.2658 57.1943 59.2885 57.2171 59.9951C57.2399 60.5649 57.707 61.2374 58.1743 61.34C58.5618 61.4311 68.4428 55.3567 71.6453 53.0659C72.8761 52.1542 72.1011 50.0344 70.3802 50.9575Z" fill="black"/>
<path d="M77.5486 85.8877C73.1153 83.3919 64.2601 79.6194 63.3256 79.8473C62.676 79.9955 63.3028 81.3973 64.226 81.8418L67.6792 83.4715C72.9901 85.9788 79.8509 88.7368 80.113 88.4747C80.6373 87.9276 79.942 87.2325 77.5486 85.8877Z" fill="black"/>
<path d="M76.7624 61.6926C76.2381 61.8294 74.7566 62.1485 70.574 62.8209C68.6821 63.1172 65.0807 64.0745 64.8072 64.3481C64.2602 64.8951 67.702 64.5532 74.1298 63.4135C75.5202 63.1628 76.8536 62.9691 77.1043 62.9919C78.2782 63.0488 77.7425 61.4419 76.7624 61.6926Z" fill="black"/>
</g>
<defs>
<clipPath id="clip0_339_15398">
<rect width="80" height="80" fill="white" transform="translate(56.5815 0.000976562) rotate(45)"/>
</clipPath>
</defs>
</svg>
