<svg width="84" height="85" viewBox="0 0 84 85" fill="none" xmlns="http://www.w3.org/2000/svg">
<path d="M53.348 46.7948C51.4779 47.2382 49.4805 48.2665 48.4529 49.945C46.5199 53.1021 48.7348 56.6387 52.557 56.1545C52.3514 55.9194 51.865 55.9668 51.577 55.8348C47.8344 54.1196 48.8581 49.5515 51.9958 47.5805C52.4022 47.3251 53.0304 47.1514 53.348 46.7948Z" fill="#F07032"/>
<path d="M26.691 28.8128C23.3201 30.1197 21.9555 35.8492 23.1908 39.0136C23.8723 40.7597 25.6185 42.1455 27.5589 41.6756C27.3884 41.5328 27.0812 41.4832 26.8714 41.4011C25.4513 40.8455 24.5335 39.3692 24.1669 37.9514C23.4497 35.1765 24.2688 31.7575 26.0992 29.5377C26.299 29.2954 26.5408 29.0933 26.691 28.8128Z" fill="#F07032"/>
<path d="M51.9071 31.1968C44.8043 32.968 42.2985 45.4536 49.3115 44.6569C49.1502 44.5711 48.9713 44.5117 48.8047 44.4354C46.956 43.5884 46.3949 41.8702 46.4457 39.9084C46.5291 36.6917 48.583 33.5897 51.1464 31.7325C51.397 31.5509 51.6868 31.4182 51.9071 31.1968Z" fill="#F07032"/>
<path d="M40.2402 24.3213C36.0035 25.4577 33.4862 30.8018 34.59 34.8949C35.1157 36.8443 36.9072 38.6788 39.0552 38.3811C38.8826 38.2398 38.6483 38.1833 38.4483 38.0884C36.6301 37.2266 35.8377 34.9802 35.7553 33.1037C35.6314 30.2815 36.8487 27.5657 38.7801 25.5554C39.2269 25.0903 39.9293 24.6862 40.2402 24.3213Z" fill="#F07032"/>
<path d="M25.6622 44.0659C23.1677 44.6656 21.7788 47.2764 22.3722 49.7101C23.0553 52.5122 25.5744 53.7027 28.0496 54.5412C31.6148 55.7492 33.2526 56.4889 35.8228 59.2906C37.7299 61.3695 39.4619 63.871 42.7179 63.3698C42.5578 63.2116 41.9658 63.1505 41.7269 63.0906C38.7482 62.3415 36.582 57.7055 33.4337 55.9028C30.8894 54.446 27.5585 54.3227 25.3244 52.2571C23.1533 50.2497 22.9185 47.0392 24.8917 44.8083C25.1286 44.5405 25.4225 44.3309 25.6622 44.0659Z" fill="#F07032"/>
<path d="M52.557 56.1536C56.3017 57.117 63.2606 52.6607 61.7809 48.4733C61.2926 47.0918 59.9879 46.3272 58.6263 46.039C56.7762 45.6473 55.0708 46.1696 53.348 46.7939C53.0304 47.1506 52.4022 47.3243 51.9958 47.5796C48.8581 49.5506 47.8344 54.1188 51.5769 55.8339C51.865 55.9659 52.3514 55.9185 52.557 56.1536ZM53.765 55.7411C53.8158 55.7034 54.855 55.3678 55.0405 55.2935C56.9579 54.5251 58.7763 53.3823 59.8523 51.5594C60.799 49.9555 60.7618 47.7963 58.9624 46.8211C58.7201 46.6898 58.4541 46.6153 58.2187 46.4688C59.2123 46.607 60.2799 47.0426 60.9009 47.8637C63.5933 51.4234 57.0777 55.9959 53.765 55.7411Z" fill="#FDECCA"/>
<path d="M53.765 55.7412C53.8158 55.7035 54.855 55.3679 55.0405 55.2936C56.9579 54.5251 58.7762 53.3823 59.8523 51.5594C60.799 49.9556 60.7618 47.7964 58.9623 46.8212C58.7201 46.6899 58.4541 46.6154 58.2187 46.4688C55.3451 45.7895 50.4692 48.0951 49.7341 51.259C49.257 53.3126 50.4982 55.2033 52.5473 55.6558C52.9005 55.7337 53.407 55.8238 53.765 55.7412Z" fill="#F07032"/>
<path d="M27.5589 41.6764C28.9685 41.6234 29.5549 41.8019 30.8998 40.8265C34.2304 38.4109 34.8924 32.3073 32.5262 29.0553C31.3214 27.3995 29.2873 27.0121 27.5754 28.1523C27.2704 28.3553 26.9867 28.5966 26.6909 28.8136C26.5408 29.0941 26.299 29.2961 26.0992 29.5385C24.2688 31.7583 23.4497 35.1773 24.1669 37.9522C24.5334 39.37 25.4512 40.8463 26.8714 41.4018C27.0812 41.484 27.3883 41.5336 27.5589 41.6764ZM28.8008 41.1225C28.9211 41.0124 29.4507 40.8786 29.8914 40.4827C32.5761 38.0706 33.1098 33.6131 31.7168 30.407C31.0324 28.8318 30.4052 28.6173 29.0269 28.0687L28.9995 28.0576C31.5202 27.5273 32.8406 29.9983 33.2639 32.1076C33.7089 34.3245 33.3054 37.0522 32.0428 38.9412C31.3636 39.9572 30.1035 41.1306 28.8008 41.1225Z" fill="#FDECCA"/>
<path d="M28.8008 41.1219C28.9211 41.0119 29.4507 40.8781 29.8914 40.4822C32.5761 38.0701 33.1098 33.6126 31.7168 30.4065C31.0324 28.8313 30.4052 28.6167 29.0269 28.0682L28.9995 28.0571C25.2611 28.645 22.3275 37.5979 26.4082 40.5424C26.8262 40.844 28.323 41.519 28.8008 41.1219Z" fill="#F07032"/>
<path d="M39.0552 38.3811C40.5317 38.4628 40.8749 38.7712 42.4989 38.0332C46.7302 36.1103 48.5972 30.2199 46.696 26.0849C45.261 22.9634 43.009 23.0229 40.2402 24.3212C39.9294 24.6861 39.2269 25.0902 38.7801 25.5553C36.8487 27.5657 35.6314 30.2814 35.7553 33.1036C35.8377 34.9802 36.6301 37.2266 38.4483 38.0884C38.6483 38.1833 38.8826 38.2397 39.0552 38.3811ZM41.113 37.9886C41.21 37.9194 41.3305 37.8726 41.4364 37.8181C45.2857 35.8352 47.1582 29.984 45.1601 26.1432C44.4838 24.8432 43.8152 24.4153 42.5088 23.9975C45.1565 23.5489 46.5082 26.1434 46.8788 28.3912C47.4954 32.1312 45.1626 37.2573 41.113 37.9886Z" fill="#FDECCA"/>
<path d="M41.113 37.9888C41.21 37.9197 41.3305 37.8729 41.4364 37.8183C45.2857 35.8355 47.1582 29.9843 45.1601 26.1435C44.4838 24.8435 43.8152 24.4156 42.5088 23.9978C41.217 24.1041 39.5985 25.3291 38.7706 26.3041C36.4379 29.0512 34.8483 34.6021 38.0291 37.2591C38.807 37.909 40.1111 38.3115 41.113 37.9888Z" fill="#F07032"/>
<path d="M49.3115 44.6574C53.1052 45.7697 57.3819 41.1635 58.6553 37.9901C59.6256 35.5717 59.721 31.6805 56.8156 30.5558C55.1315 29.9039 53.4616 30.5078 51.9071 31.1973C51.6868 31.4187 51.397 31.5514 51.1464 31.733C48.583 33.5902 46.5292 36.6922 46.4457 39.9089C46.3949 41.8707 46.956 43.5889 48.8047 44.4359C48.9713 44.5122 49.1503 44.5716 49.3115 44.6574ZM50.7081 44.2996C50.8144 44.2097 51.0825 44.1604 51.2197 44.1132C53.477 43.3359 55.4632 41.2986 56.6081 39.2687C58.0165 36.7717 58.6924 32.632 55.6649 31.0282C55.4495 30.9142 55.2015 30.8874 54.991 30.7602C57.1402 30.5608 58.5969 32.1526 58.7844 34.2071C59.1689 38.4187 55.1065 44.0275 50.7081 44.2996Z" fill="#FDECCA"/>
<path d="M50.708 44.299C50.8143 44.2091 51.0825 44.1598 51.2197 44.1126C53.4769 43.3353 55.4631 41.298 56.608 39.2681C58.0165 36.7711 58.6923 32.6314 55.6648 31.0276C55.4495 30.9136 55.2014 30.8867 54.9909 30.7596C50.8214 30.8453 46.8059 36.3209 46.9129 40.236C46.9441 41.3781 47.2231 42.6431 48.0907 43.4511C48.7026 44.021 49.8652 44.4439 50.708 44.299Z" fill="#F07032"/>
<path d="M42.7179 63.37C45.7524 63.3353 48.6951 61.7245 48.5703 58.2842C48.5282 57.1275 48.0686 56.4547 47.6711 55.4234C46.4551 52.2684 48.6454 50.1674 47.4472 46.7303C45.8823 42.2408 40.8667 39.405 36.2309 40.5228C35.5974 40.6754 35.0019 40.9295 34.3885 41.1438C32.9798 41.4038 30.2233 42.6182 28.8158 43.3747C27.6271 43.272 26.7091 43.5085 25.6622 44.0661C25.4225 44.3311 25.1286 44.5407 24.8916 44.8085C22.9184 47.0394 23.1533 50.2499 25.3244 52.2573C27.5585 54.3229 30.8894 54.4462 33.4337 55.903C36.5819 57.7057 38.7482 62.3417 41.7269 63.0908C41.9657 63.1507 42.5578 63.2118 42.7179 63.37ZM44.8685 62.6346C45.0337 62.4416 45.2687 62.2866 45.4588 62.1159C46.4621 61.2143 47.1018 59.7171 47.079 58.3805C47.0636 57.4726 46.6445 56.7937 46.3061 55.9852C45.2328 53.4209 46.0399 52.2889 46.3203 50.003C46.835 45.8086 42.6987 41.5393 38.6719 40.9341C38.388 40.8914 37.9657 40.9158 37.7247 40.7524C42.4744 40.595 47.2594 44.1284 47.4169 49.0344C47.4662 50.5692 46.7584 51.9774 46.8133 53.5154C46.8974 55.8637 48.6155 57.2623 47.9723 59.5327C47.5548 61.0062 46.3296 62.2057 44.8685 62.6346Z" fill="#FDECCA"/>
<path d="M34.3884 41.1436C32.9798 41.4036 30.2233 42.6179 28.8157 43.3744C30.3382 43.8608 32.1535 42.5487 33.3673 41.7933C33.6931 41.5906 34.1141 41.4063 34.3884 41.1436Z" fill="#F07032"/>
<path d="M44.8684 62.6339C45.0336 62.4409 45.2686 62.286 45.4587 62.1152C46.462 61.2136 47.1017 59.7164 47.079 58.3798C47.0635 57.4719 46.6444 56.793 46.306 55.9846C45.2327 53.4203 46.0398 52.2882 46.3202 50.0023C46.8349 45.8079 42.6986 41.5387 38.6718 40.9334C38.3879 40.8907 37.9656 40.9151 37.7246 40.7517C34.8787 40.7708 33.268 42.804 30.8546 43.6745C29.8362 44.042 29.2947 43.8694 28.2818 43.8133C25.8417 43.6782 23.9762 46.0211 23.9965 48.3345C24.0328 52.4772 28.3799 53.4898 31.4898 54.5793C33.5373 55.2966 34.9447 56.1731 36.4714 57.7865C38.5095 59.9401 40.1191 62.9721 43.5292 62.8907C43.9605 62.8804 44.4785 62.8288 44.8684 62.6339Z" fill="#F07032"/>
</svg>
