<svg width="111" height="111" viewBox="0 0 111 111" fill="none" xmlns="http://www.w3.org/2000/svg">
<path fill-rule="evenodd" clip-rule="evenodd" d="M53.6194 3.19327C53.1481 7.12119 53.1795 17.3338 53.8708 18.6536C55.4734 21.8587 57.0132 19.3448 57.3588 12.9973C57.6416 7.46684 57.893 4.79585 57.9244 3.38181C58.0501 0.239474 53.9337 0.490878 53.6194 3.19327ZM74.6416 4.07313C72.442 4.95299 60.1555 27.295 60.1555 30.4373C60.1555 31.3172 61.5067 31.6 62.5437 30.9086C63.5806 30.2173 66.0631 26.3837 69.1111 20.6961C72.5048 14.4114 76.1185 7.87535 76.9984 6.49271C78.381 4.29307 77.1869 3.06757 74.6416 4.07313ZM33.2886 8.88088C32.7229 9.28939 32.8172 9.47793 34.5141 12.7145C40.9873 24.9068 41.3329 26.3523 44.5381 25.9438C46.9577 25.6295 46.9577 25.4724 43.6897 19.4391C39.9503 12.4632 37.9078 9.16369 37.1851 8.78661C36.368 8.31526 33.9799 8.37813 33.2886 8.88088ZM85.4513 10.9234C83.6287 11.6776 73.9818 23.1157 73.9818 24.5297C73.9818 27.1693 78.7581 23.4299 87.2738 14.16C89.8191 11.3633 88.8136 9.54077 85.4513 10.9234ZM20.9706 17.1452C18.1111 17.7109 22.3532 22.8957 25.6841 22.8957C28.3551 22.8957 28.4494 21.6388 25.9669 19.282C24.49 17.8365 23.0131 16.7367 20.9706 17.1452ZM96.7322 21.6702C94.9725 22.6129 92.7415 24.624 88.8136 27.2321C84.1629 30.3116 79.2294 33.7996 77.7525 35.0879C75.2073 37.2876 77.3126 37.8532 80.4864 35.7792C81.5548 35.0879 84.7914 33.0768 87.6823 31.3486C94.564 27.2007 101.603 22.5814 101.603 22.2672C101.634 21.0417 98.6176 20.6646 96.7322 21.6702ZM53.9337 23.587C53.368 24.1526 53.4623 27.1378 54.0594 27.7349C56.1962 29.8717 58.9614 26.0066 56.9817 23.6498C56.5418 23.1157 54.4364 23.0842 53.9337 23.587ZM28.2294 26.4779C27.4753 27.0121 27.7895 27.4521 32.7858 32.794C38.6619 39.0787 39.1961 39.3929 41.7414 38.2303C42.9041 37.6961 42.7784 37.4447 40.2645 34.5852C33.8228 27.3264 30.3033 24.9696 28.2294 26.4779ZM10.381 33.3597C9.21829 34.2395 9.94104 34.6794 17.1056 37.5075C24.3015 40.3356 28.2294 42.3467 33.7285 45.8976C36.8394 47.9086 42.0242 48.0029 40.3902 45.9918C36.6823 41.5926 12.8006 31.5057 10.381 33.3597ZM97.8635 39.2672C80.4864 45.4891 79.1352 46.149 80.3293 47.343C80.8949 47.9086 81.7433 47.8144 85.3256 46.746C108.767 39.77 109.207 40.0214 106.348 37.9475C104.871 36.8791 104.211 36.9733 97.8635 39.2672ZM69.2682 40.5556C66.8801 42.6295 66.6601 43.2894 68.137 43.6979C71.1222 44.4835 75.3015 40.367 75.2701 40.3985C75.4272 40.2414 75.5529 40.0214 75.5215 39.8014C75.5215 39.5815 75.3958 39.3615 75.2387 39.2044C73.6989 37.916 71.7821 38.3559 69.2682 40.5556ZM53.5252 44.3264L52.8653 46.8402C51.5769 51.868 48.0261 56.2044 45.2294 56.2044C43.1869 56.2044 44.4124 57.9327 46.7063 58.3098C49.7544 58.7811 52.4568 63.9346 52.5825 68.9623C52.6767 72.356 56.1333 72.4189 56.7932 69.9678C58.5215 63.6203 59.9355 61.075 63.6121 58.2469C65.8745 56.5187 65.906 56.2044 63.9891 54.9161C60.9096 52.8421 60.1869 51.7423 58.3644 46.3375C56.3218 40.2414 54.0279 42.4724 53.5252 44.3264ZM8.77837 46.6517C8.14992 47.2802 8.14992 48.1286 8.8098 49.5112C9.6268 51.2081 10.758 51.5852 19.9337 52.905C22.9503 53.3449 26.6897 54.0048 28.2294 54.3819C31.4032 55.1674 31.686 55.0103 31.466 52.9992C31.246 51.1138 30.5547 50.3911 28.5436 49.7626C25.5584 48.8828 24.8043 48.7257 18.4253 47.7201C15.063 47.1859 11.7636 46.6203 11.0408 46.4632C9.31258 46.0861 9.37542 46.0861 8.77837 46.6517ZM56.856 52.685C57.4845 53.6277 58.4586 54.4761 59.747 55.2303C61.8523 56.4558 62.0409 56.6758 61.0982 56.99C60.1555 57.3042 57.7359 59.4096 56.6361 60.8865L55.6619 62.2063L54.7821 60.7922C53.9023 59.4096 51.8597 57.6813 50.6342 57.3042C50.0686 57.1157 50.1629 56.9586 51.5769 55.7331C54.3422 53.3135 54.9707 49.7312 55.5677 50.7682C55.7562 51.0196 56.3218 51.8994 56.856 52.685ZM73.7304 55.576C72.3792 56.1101 74.2017 59.0954 76.1185 59.441C79.3866 60.0695 93.7784 60.0066 93.7784 59.3782C93.7784 58.4669 92.0502 56.6129 90.8561 56.2358C89.0964 55.7016 74.8616 55.136 73.7304 55.576ZM95.4753 56.6443C94.8468 58.3098 97.5492 59.8181 102.263 60.3837C107.039 60.9493 107.668 60.6037 105.814 58.3726C104.242 56.5501 96.0409 55.1674 95.4753 56.6443ZM33.5714 58.624C31.9059 60.2894 34.1998 63.526 36.9337 63.3689C38.819 63.2747 39.2904 62.3005 38.442 60.258C37.7507 58.5297 34.7026 57.5242 33.5714 58.624ZM20.8764 60.1637C17.0113 60.9493 11.6065 61.8606 8.62126 62.1748C4.56764 62.6462 3.2793 62.9919 3.2793 63.7146C3.2793 64.9715 5.95028 66.417 7.80424 66.1656C8.49556 66.0713 10.9152 65.7571 13.1776 65.5057C22.3847 64.3745 28.7322 62.709 28.1037 61.5778C27.1924 59.8809 24.6471 59.3782 20.8764 60.1637ZM79.0409 68.051C74.5474 70.2192 79.8579 73.7072 84.6971 71.759C86.2054 71.1619 84.8542 69.3394 83.3459 68.6795C80.8634 67.5797 80.235 67.4854 79.0409 68.051ZM68.6398 70.2821C66.8172 70.8791 66.3144 72.4817 67.6657 73.5501C68.1684 73.9586 70.9023 76.3782 73.7618 78.9235C85.5455 89.4817 88.9707 92.027 90.4476 91.3671C92.8043 90.2987 91.0446 88.1933 78.5381 77.3837C71.7507 71.5076 69.5825 69.9678 68.6398 70.2821ZM39.4789 72.576C37.5307 73.5501 19.6194 92.2155 19.6194 93.2525C19.6194 95.2636 23.8616 94.698 25.9355 92.4041C27.5067 90.6758 32.3144 85.6481 39.039 78.7663C45.0094 72.6388 45.2294 69.685 39.4789 72.576ZM89.4734 73.6444C88.4679 74.0843 87.7452 75.5297 88.3422 75.9697C96.418 81.6259 100.409 82.7257 100.409 79.2691C100.377 77.3209 91.516 72.7645 89.4734 73.6444ZM19.6194 77.2894C14.9059 79.6776 14.7802 79.8033 16.0057 80.5889C18.3311 82.0972 29.4864 77.1009 27.3181 75.4983C25.9983 74.5242 24.2701 74.9327 19.6194 77.2894ZM55.0335 77.3523C53.588 78.4521 53.0538 83.417 56.6047 83.4798C57.9873 83.5113 59.0243 82.0658 58.9614 79.6462C58.8986 77.1323 56.856 75.9382 55.0335 77.3523ZM44.6324 81.4373C42.3699 84.2026 36.8708 93.4096 36.8708 94.4466C36.8708 97.2118 42.2442 90.9586 46.7063 82.9142C48.5603 79.6462 46.9891 78.5464 44.6324 81.4373ZM67.0372 81.5316C65.7488 83.1028 77.2498 97.3689 79.1037 96.5205C80.7378 95.7664 80.2036 94.8237 74.4845 88.2876C68.5455 81.4059 67.7285 80.6832 67.0372 81.5316ZM55.1906 88.8218C53.808 89.7017 52.8653 107.707 54.1851 108.744C57.0446 111.07 58.2701 107.833 58.2387 98.0288C58.2387 89.1989 57.6102 87.3135 55.1906 88.8218Z" fill="#060501"/>
</svg>
