<svg width="111" height="111" viewBox="0 0 111 111" fill="none" xmlns="http://www.w3.org/2000/svg">
<path d="M23.1901 58.2224C18.652 59.5506 20.0172 62.3546 18.2831 61.4691C16.0694 60.3254 12.4538 61.3584 11.4576 63.4983C9.83426 66.9295 13.782 73.6443 19.7589 77.2968C20.6075 77.8134 21.9353 78.662 22.6732 79.1416C26.6209 81.6873 29.3515 76.4114 29.5359 65.712C29.6466 59.7351 27.3592 56.968 23.1901 58.2224ZM24.149 75.0832L23.6697 76.7062C17.8035 70.803 14.5568 67.815 14.5199 64.8634C14.483 62.4653 15.3315 62.576 17.5452 65.343C18.8365 66.9664 19.6113 67.5936 20.3492 67.7043C23.6328 68.147 21.5295 64.3838 23.2266 61.2477C23.7431 60.2516 24.3703 60.5837 25.2558 62.2808C26.1044 64.0517 25.5879 70.25 24.149 75.0832Z" fill="#F07032"/>
<path d="M90.3372 38.4837C88.677 38.9264 88.308 38.8895 87.607 38.4099C86.7216 37.8196 84.3234 37.7458 82.9214 38.2992C78.7523 39.9595 77.2397 48.6665 79.7854 56.2299C81.7039 61.9486 84.0651 61.2844 90.3372 53.3521C98.1589 43.4275 98.1589 36.4176 90.3372 38.4837ZM92.2926 44.3495C90.7062 48.1128 84.3972 55.1231 83.9545 53.5366C83.4011 51.3967 83.2166 45.7888 83.6224 43.4644C84.4341 39.1109 86.205 38.0778 86.205 41.9886C86.205 43.981 87.7177 44.6081 88.9721 43.1324C89.2673 42.7634 90.042 41.8411 90.6692 41.1032C92.6247 38.7788 93.6946 40.9921 92.2926 44.3495Z" fill="#F07032"/>
<path d="M56.727 34.1671C55.7678 34.6836 55.2509 34.7574 54.7713 34.4991C50.1595 32.0641 46.0276 36.6759 47.8724 42.0994C52.558 55.6766 56.2474 55.6397 63.1836 41.9518C66.172 36.0118 62.1874 31.2155 56.727 34.1671ZM61.0433 38.2255C60.7113 39.5168 59.2724 41.3246 57.7597 43.5752C55.0664 47.7074 55.4726 47.5967 54.1444 44.6082C52.9269 41.9149 51.0818 40.4023 50.7498 39.2216C50.307 37.5614 51.0449 34.0564 53.8858 37.2663C55.3247 38.8896 56.8008 39.0003 57.2805 37.3769C58.5349 33.3185 61.5598 36.2701 61.0433 38.2255Z" fill="#F07032"/>
<path d="M81.8519 27.1198C94.9125 15.3504 98.6389 4.39275 89.3046 5.13066L86.9802 5.31513L86.0579 3.91314C84.3976 1.4412 81.5567 0.518849 78.6052 1.55189C73.4768 3.35971 71.5952 8.63563 72.5545 18.4865C73.8089 31.1044 75.6167 32.7277 81.8519 27.1198ZM76.3542 12.0299C76.6125 4.8724 79.3431 1.07225 82.3315 3.65488C83.918 5.01996 84.4714 7.23364 83.4753 8.15599C79.4906 11.8823 78.4945 16.8262 81.7412 16.8262C84.3976 16.8262 86.9433 13.5057 87.5336 9.3366C88.0133 5.64718 91.0017 5.75784 91.0017 9.4842C91.0017 11.4027 90.0794 12.9892 86.353 17.5641C84.0656 20.3681 77.6825 26.9353 77.4611 26.677C77.0552 26.2343 76.2436 15.7931 76.3542 12.0299Z" fill="#F07032"/>
<path d="M93.7314 73.8281C92.6246 74.0494 92.5142 73.9756 92.5142 73.2008C92.5142 71.0979 89.2672 69.8438 86.5001 70.8399C80.6338 72.9798 75.69 83.052 76.9075 90.394C77.7192 95.3748 99.5242 83.273 99.5242 77.8126C99.5242 75.1194 96.8305 73.2008 93.7314 73.8281ZM80.4125 88.6227C80.1173 88.3276 83.0692 79.0302 84.213 76.7058C86.0946 72.8319 88.419 71.4299 88.419 74.197C88.419 74.6397 87.8652 75.7466 87.238 76.5951C84.8767 79.6574 84.9874 79.5836 85.4301 80.0263C86.2787 80.8749 89.1569 79.6943 91.0754 77.702C93.289 75.4145 95.8347 75.4145 95.8347 77.7389C95.8347 79.3622 81.3718 89.582 80.4125 88.6227Z" fill="#F07032"/>
<path d="M49.7908 75.1936C51.3035 74.6033 55.0302 64.6417 55.0671 61.1737C55.0671 56.8939 51.3408 54.7909 47.43 56.8939C46.8765 57.189 46.3969 57.5949 46.3969 57.7425C46.3969 57.927 45.2901 58.0376 43.9619 58.0007C39.4607 57.927 38.5015 60.2513 40.6413 66.1175C43.0026 72.611 46.7286 76.3373 49.7908 75.1936ZM44.8842 61.2843C46.2124 63.498 48.6106 63.0553 48.6106 60.6202C48.6106 58.7017 50.2708 57.5211 50.6767 59.1813C51.0825 60.8416 48.4261 69.9545 47.5406 69.9545C46.9134 69.9545 44.0722 63.6825 43.8877 61.8747C43.6663 59.661 43.8512 59.5503 44.8842 61.2843Z" fill="#F07032"/>
<path d="M51.7457 92.608C51.1554 92.8662 50.4171 93.3827 50.1589 93.6779C49.7899 94.1575 49.2738 94.2313 47.8349 94.0468C41.157 93.2352 39.9394 100.098 45.7688 105.927C51.0447 111.203 53.8856 110.686 55.9886 104.082C58.8294 95.1906 57.0216 90.2467 51.7457 92.608ZM51.1554 105.41C48.0931 101.315 44.9571 97.4777 45.5105 96.0019C45.9533 94.895 47.3921 95.965 48.2407 98.0311C49.1631 100.208 52.1143 99.95 51.8191 97.7363C51.3764 94.342 53.4429 92.5711 53.9963 95.8547C54.4021 98.2897 51.3768 104.783 51.1554 105.41Z" fill="#F07032"/>
<path d="M37.7256 15.8674C35.5488 17.0849 35.5857 17.0849 34.9954 15.5353C34.1837 13.2847 31.3429 12.5468 28.502 13.8381C23.2261 16.2732 23.7053 25.3123 29.6822 34.2408C30.826 35.938 30.9366 40.7711 36.8766 34.7573C40.1234 31.4737 45.0676 26.0133 46.4327 24.021C50.9338 17.4169 44.9569 11.8089 37.7256 15.8674ZM44.7724 19.4092C44.4404 21.9549 35.3271 32.8757 32.8183 33.7243C32.1542 33.9457 29.2768 24.722 28.834 21.0695C28.2437 15.9042 30.8263 12.6944 32.2283 16.9004C32.5604 17.9334 32.8183 19.4092 32.8183 20.2209C32.7814 22.9142 35.3644 23.0249 36.6188 20.3685C39.0169 15.2401 45.3997 14.5391 44.7724 19.4092Z" fill="#F07032"/>
</svg>
