<svg width="41" height="40" viewBox="0 0 41 40" fill="none" xmlns="http://www.w3.org/2000/svg">
<g clip-path="url(#clip0_325_7540)">
<path fill-rule="evenodd" clip-rule="evenodd" d="M15.3584 33.5522C17.0624 34.1322 22.8628 38.2222 22.8628 38.8422C22.8628 39.3622 24.96 39.3722 24.6487 36.5322C24.3865 34.1722 24.5831 33.0122 25.6482 30.4622C26.2052 29.1422 25.9595 28.5423 25.1238 29.1223C24.4848 29.5723 23.4854 31.5423 23.0921 33.1423C22.8791 34.0223 22.7481 33.8723 21.978 31.9823C20.1593 27.4422 20.3231 23.9023 22.6989 17.0423C25.5171 8.93235 24.8615 3.77235 20.6834 1.22235C18.8811 0.122349 18.1112 1.76235 19.7497 3.24235C23.2232 6.38235 23.4854 9.76235 20.8966 17.7423C18.4881 25.1423 18.2751 28.4323 19.9135 32.6223C20.1757 33.3023 20.4051 33.8823 20.4051 33.9123C20.4051 33.9323 19.8642 33.6223 19.2088 33.2123C17.2263 31.9823 15.8337 31.7223 15.0473 32.4323C14.441 32.9723 14.5228 33.2722 15.3584 33.5522Z" fill="#060501"/>
</g>
<defs>
<clipPath id="clip0_325_7540">
<rect width="40" height="40" fill="white" transform="translate(0.299927 40.0098) rotate(-90)"/>
</clipPath>
</defs>
</svg>
