<svg width="17" height="17" viewBox="0 0 17 17" fill="none" xmlns="http://www.w3.org/2000/svg">
<path fill-rule="evenodd" clip-rule="evenodd" d="M9.92183 2.79164L13.9218 5.01164C14.5575 5.36579 14.9507 6.03728 14.9485 6.76498V11.0716C14.9507 11.7993 14.5575 12.4708 13.9218 12.825L9.92183 15.045C9.31672 15.3821 8.58027 15.3821 7.97516 15.045L3.97516 12.825C3.33945 12.4708 2.94626 11.7993 2.9485 11.0716V6.76498C2.94626 6.03728 3.33945 5.36579 3.97516 5.01164L7.97516 2.79164C8.58027 2.45454 9.31672 2.45454 9.92183 2.79164ZM13.4085 11.9516C13.7243 11.7709 13.92 11.4355 13.9218 11.0716V6.76498C13.92 6.40107 13.7243 6.06574 13.4085 5.88498L9.4085 3.66498C9.10594 3.49643 8.73772 3.49643 8.43516 3.66498L4.43516 5.88498C4.11932 6.06574 3.92371 6.40107 3.92183 6.76498V11.0716C3.92371 11.4355 4.11932 11.7709 4.43516 11.9516L8.43516 14.1716C8.73772 14.3402 9.10594 14.3402 9.4085 14.1716L13.4085 11.9516Z" fill="#343434"/>
<path d="M12.0685 6.38498L9.24851 7.95164C9.06286 8.05882 8.83415 8.05882 8.64851 7.95164L5.82851 6.38498C5.67216 6.29348 5.47856 6.29371 5.32243 6.38556C5.1663 6.47741 5.07206 6.64653 5.07609 6.82763C5.08011 7.00873 5.18178 7.17349 5.34184 7.25831L8.16184 8.82498C8.25539 8.87463 8.35365 8.91482 8.45517 8.94498V11.9183C8.45517 12.1945 8.67903 12.4183 8.95517 12.4183C9.23131 12.4183 9.45517 12.1945 9.45517 11.9183V8.91831C9.55261 8.8916 9.64659 8.85356 9.73517 8.80498L12.5552 7.23831C12.79 7.10091 12.8718 6.80102 12.7394 6.56339C12.607 6.32576 12.3089 6.2376 12.0685 6.36498V6.38498Z" fill="#343434"/>
</svg>
