<svg width="15" height="15" viewBox="0 0 15 15" fill="none" xmlns="http://www.w3.org/2000/svg">
<path fill-rule="evenodd" clip-rule="evenodd" d="M6.6944 7.97259H5.88357C5.72682 7.97262 5.57665 7.90957 5.46691 7.79764C5.35717 7.6857 5.2971 7.53431 5.30023 7.37759V6.56676C5.30023 6.24459 5.5614 5.98343 5.88357 5.98343H6.6944C7.01657 5.98343 7.27773 6.24459 7.27773 6.56676V7.38926C7.27773 7.71143 7.01657 7.97259 6.6944 7.97259ZM6.4144 6.84676H6.16357V7.09759H6.4144V6.84676Z" fill="#666666"/>
<path d="M5.69107 9.44843H8.27523C8.51686 9.44843 8.71273 9.25255 8.71273 9.01093C8.71273 8.7693 8.51686 8.57343 8.27523 8.57343H5.69107C5.44944 8.57343 5.25357 8.7693 5.25357 9.01093C5.25357 9.25255 5.44944 9.44843 5.69107 9.44843Z" fill="#666666"/>
<path d="M9.11523 10.0493H5.69107C5.44944 10.0493 5.25357 10.2451 5.25357 10.4868C5.25357 10.7284 5.44944 10.9243 5.69107 10.9243H9.11523C9.35686 10.9243 9.55273 10.7284 9.55273 10.4868C9.55273 10.2451 9.35686 10.0493 9.11523 10.0493Z" fill="#666666"/>
<path fill-rule="evenodd" clip-rule="evenodd" d="M12.3411 6.00676L8.25773 1.92343C8.17179 1.84977 8.06174 1.81031 7.94857 1.81259H6.19857C4.66828 1.81259 3.42773 3.05314 3.42773 4.58343V10.4168C3.42773 11.947 4.66828 13.1876 6.19857 13.1876H9.69857C11.2289 13.1876 12.4694 11.947 12.4694 10.4168V6.33343C12.4714 6.21187 12.4253 6.09446 12.3411 6.00676ZM8.38607 3.29426L10.9877 5.89593H9.11523C8.71253 5.89593 8.38607 5.56947 8.38607 5.16676V3.29426ZM4.30273 10.4168C4.30594 11.4625 5.15286 12.3094 6.19857 12.3126H9.69857C10.7443 12.3094 11.5912 11.4625 11.5944 10.4168V6.77093H9.11523C8.22928 6.77093 7.51107 6.05272 7.51107 5.16676V2.68759H6.19857C5.15286 2.6908 4.30594 3.53772 4.30273 4.58343V10.4168Z" fill="#666666"/>
</svg>
