<svg width="29" height="29" viewBox="0 0 29 29" fill="none" xmlns="http://www.w3.org/2000/svg">
<path d="M18.9128 18.1589L21.2245 15.8349C21.4532 15.5895 21.7976 15.4885 22.1227 15.5715C22.4477 15.6545 22.7015 15.9083 22.7845 16.2333C22.8675 16.5584 22.7665 16.9028 22.5211 17.1315L20.2093 19.4554C20.0382 19.6287 19.8046 19.7257 19.5611 19.7245C19.3167 19.73 19.0814 19.6323 18.9128 19.4554C18.738 19.2851 18.6394 19.0513 18.6394 18.8072C18.6394 18.563 18.738 18.3293 18.9128 18.1589Z" fill="#F07032"/>
<path fill-rule="evenodd" clip-rule="evenodd" d="M22.4599 7.72555H16.6011C15.25 7.72555 14.1548 6.63032 14.1548 5.27928C14.1548 3.92824 13.0596 2.83301 11.7085 2.83301H5.8497C3.46589 2.83968 1.53321 4.76691 1.51979 7.15068V21.6448C1.51653 22.7942 1.97167 23.8974 2.78439 24.7101C3.59711 25.5229 4.70034 25.978 5.8497 25.9747H22.4599C24.8512 25.9747 26.7898 24.0362 26.7898 21.6448V12.0677C26.7898 9.67436 24.8532 7.7323 22.4599 7.72555ZM23.6219 18.1467L18.8639 22.6845C18.6157 22.9315 18.2935 23.0905 17.9465 23.1371L15.3779 23.5285C15.1743 23.5653 14.9654 23.5028 14.8155 23.3602C14.6656 23.2176 14.5929 23.012 14.6196 22.8068L15.0232 20.3606C15.0772 20.0274 15.2408 19.7218 15.488 19.4921L20.2705 14.9543C21.2021 14.0205 22.7062 13.9935 23.6708 14.8931C24.1152 15.3209 24.3622 15.9138 24.353 16.5305C24.3437 17.1473 24.0789 17.7325 23.6219 18.1467Z" fill="#F07032"/>
</svg>
