<svg width="29" height="28" viewBox="0 0 29 28" fill="none" xmlns="http://www.w3.org/2000/svg">
<path d="M7.29661 23.9922H14.2314C14.7371 23.9922 15.147 24.4022 15.147 24.9079C15.147 25.4136 14.7371 25.8236 14.2314 25.8236H7.29661C4.15047 25.8169 1.6017 23.2681 1.59498 20.122V8.05942C1.59174 6.54401 2.19063 5.08939 3.25989 4.01555C4.32915 2.9417 5.78121 2.33661 7.29661 2.33337H12.0093C13.7827 2.33337 15.2203 3.77098 15.2203 5.54435C15.2269 6.30353 15.8407 6.91735 16.5999 6.92398H21.3126C24.4587 6.93069 27.0075 9.47947 27.0142 12.6256C27.0212 13.1423 26.6149 13.5703 26.0985 13.5901C25.8591 13.6001 25.626 13.5119 25.4531 13.346C25.2803 13.18 25.1827 12.9507 25.1829 12.7111C25.1992 11.6718 24.7994 10.6692 24.0725 9.92622C23.3456 9.18329 22.352 8.76172 21.3126 8.75533H16.5999C14.8265 8.75533 13.3889 7.31773 13.3889 5.54435C13.3692 4.79472 12.7592 4.19547 12.0093 4.18915H7.29661C5.15912 4.18915 3.42634 5.92193 3.42634 8.05942V20.122C3.42634 22.2594 5.15912 23.9922 7.29661 23.9922Z" fill="#666666"/>
<path fill-rule="evenodd" clip-rule="evenodd" d="M26.8311 15.6901C25.5138 14.4633 23.4723 14.4633 22.155 15.6901L17.4057 20.2318C17.0147 20.6023 16.7571 21.0916 16.6732 21.6237L16.2703 24.0655C16.1798 24.5767 16.3599 25.0985 16.7464 25.4451C17.0484 25.7532 17.4627 25.9251 17.8941 25.9213H18.1382L20.6777 25.5306C21.2082 25.4435 21.7009 25.2013 22.094 24.8347L26.8311 20.2929C27.4817 19.6865 27.8529 18.8382 27.8567 17.9487C27.8439 17.086 27.4723 16.2675 26.8311 15.6901ZM25.5003 18.9743L20.751 23.5161C20.6386 23.6191 20.4986 23.687 20.3481 23.7114L18.1749 24.0411L18.5045 22.0266C18.5275 21.8898 18.5964 21.7649 18.6999 21.6725L23.437 17.1307C23.7393 16.8504 24.1357 16.6936 24.548 16.6912C24.9203 16.6835 25.2804 16.8241 25.5491 17.0819C25.7973 17.312 25.9387 17.6348 25.9398 17.9732C25.9375 18.3532 25.7784 18.7154 25.5003 18.9743Z" fill="#666666"/>
</svg>
