<svg width="16" height="17" viewBox="0 0 16 17" fill="none" xmlns="http://www.w3.org/2000/svg">
<path d="M8.68659 4.13992C8.683 4.41456 8.46123 4.63633 8.18659 4.63992C7.91195 4.63633 7.69018 4.41456 7.68659 4.13992V2.33325C7.68659 2.05711 7.91045 1.83325 8.18659 1.83325C8.46273 1.83325 8.68659 2.05711 8.68659 2.33325V4.13992Z" fill="#666666"/>
<path fill-rule="evenodd" clip-rule="evenodd" d="M8.23325 5.25325H8.18658C6.91321 5.23017 5.73797 5.93469 5.15822 7.06867C4.57848 8.20265 4.69556 9.56787 5.45992 10.5866C6.12579 11.4776 6.49642 12.5545 6.51992 13.6666C6.62631 14.506 7.34042 15.1353 8.18658 15.1353C9.03275 15.1353 9.74686 14.506 9.85325 13.6666C9.81792 12.5993 10.1497 11.5521 10.7933 10.6999C11.2475 10.1305 11.5027 9.42807 11.5199 8.69992C11.5428 6.84887 10.0833 5.31832 8.23325 5.25325ZM8.18659 14.3333C7.8184 14.3333 7.51992 14.0348 7.51992 13.6666V13.4933H8.89325V13.6799C8.88995 13.8616 8.81266 14.034 8.67927 14.1573C8.54587 14.2806 8.36793 14.3442 8.18659 14.3333Z" fill="#666666"/>
<path d="M8.18658 5.25325L8.21992 6.25325C9.11894 6.26673 9.93219 6.78987 10.3172 7.60238C10.7022 8.41489 10.5921 9.37559 10.0333 10.0799C9.49353 10.7781 9.132 11.5973 8.97992 12.4666H7.37992C7.1794 11.5702 6.79831 10.7241 6.25992 9.97992C5.74835 9.25973 5.68183 8.31414 6.08752 7.52942C6.49322 6.7447 7.3032 6.25226 8.18658 6.25325V5.25325Z" fill="#666666"/>
<path d="M13.0599 3.74659C12.8647 3.55162 12.5485 3.55162 12.3533 3.74659L11.1066 4.98659C10.9144 5.18553 10.9144 5.50098 11.1066 5.69992C11.3082 5.88546 11.6183 5.88546 11.8199 5.69992L13.0599 4.45325C13.2549 4.25804 13.2549 3.9418 13.0599 3.74659Z" fill="#666666"/>
<path d="M12.6666 7.85325H14.4199C14.6961 7.85325 14.9199 8.07711 14.9199 8.35325C14.9199 8.62939 14.6961 8.85325 14.4199 8.85325H12.6666C12.3904 8.85325 12.1666 8.62939 12.1666 8.35325C12.1666 8.07711 12.3904 7.85325 12.6666 7.85325Z" fill="#666666"/>
<path d="M3.58658 7.85325H1.83325C1.55711 7.85325 1.33325 8.07711 1.33325 8.35325C1.33325 8.62939 1.55711 8.85325 1.83325 8.85325H3.58658C3.86273 8.85325 4.08658 8.62939 4.08658 8.35325C4.08658 8.07711 3.86273 7.85325 3.58658 7.85325Z" fill="#666666"/>
<path d="M5.34284 5.34325C5.34284 5.47739 5.28894 5.60591 5.19325 5.69992C5.0981 5.79066 4.9714 5.84087 4.83992 5.83992C4.70857 5.84018 4.58211 5.79007 4.48659 5.69992L3.24659 4.45325C3.11282 4.3286 3.05775 4.14088 3.103 3.96373C3.14824 3.78657 3.28657 3.64824 3.46373 3.60299C3.64088 3.55775 3.82861 3.61282 3.95325 3.74659L5.19325 4.98659C5.28894 5.08059 5.34284 5.20911 5.34284 5.34325Z" fill="#666666"/>
</svg>
