<svg width="31" height="30" viewBox="0 0 31 30" fill="none" xmlns="http://www.w3.org/2000/svg">
<path fill-rule="evenodd" clip-rule="evenodd" d="M13.7155 17.0125L3.81555 12.0125C3.47534 11.7795 3.27196 11.3936 3.27196 10.9813C3.27196 10.5689 3.47534 10.183 3.81555 9.95L13.7155 4.95C14.2326 4.69474 14.8015 4.56214 15.378 4.5625C15.9033 4.56533 16.4223 4.67595 16.903 4.8875L27.8905 9.8875C28.2884 10.1077 28.5354 10.5265 28.5354 10.9813C28.5354 11.436 28.2884 11.8549 27.8905 12.075L16.903 17.075C16.4223 17.2866 15.9033 17.3972 15.378 17.4C14.8015 17.4004 14.2326 17.2678 13.7155 17.0125ZM15.4405 6.3875C15.1588 6.38554 14.8805 6.44977 14.628 6.575L5.87805 10.9375L14.628 15.2875C14.8805 15.4127 15.1588 15.477 15.4405 15.475C15.6996 15.4778 15.9559 15.4223 16.1905 15.3125L25.828 10.9375L16.1905 6.55C15.9559 6.44021 15.6996 6.38467 15.4405 6.3875Z" fill="#666666"/>
<path d="M27.4905 15.0625L16.428 19.675C15.7515 19.995 14.9671 19.995 14.2905 19.675L4.49055 15.075C4.18464 14.9343 3.82692 14.9675 3.55214 15.1621C3.27736 15.3567 3.12726 15.6831 3.15839 16.0184C3.18951 16.3536 3.39714 16.6468 3.70305 16.7875L13.478 21.3125C14.0846 21.6125 14.7514 21.7707 15.428 21.775C16.0328 21.7765 16.6304 21.6442 17.178 21.3875L28.203 16.8C28.44 16.7061 28.6285 16.5199 28.7252 16.284C28.8219 16.0482 28.8184 15.7832 28.7155 15.55C28.5048 15.0845 27.9635 14.8691 27.4905 15.0625Z" fill="#666666"/>
<path d="M27.4905 18.9125L16.428 23.525C15.7515 23.845 14.9671 23.845 14.2905 23.525L4.49055 18.9375C4.18457 18.7808 3.81738 18.8042 3.53371 18.9983C3.25004 19.1925 3.09538 19.5264 3.13071 19.8683C3.16603 20.2102 3.38567 20.5054 3.70305 20.6375L13.478 25.1625C14.0786 25.4666 14.7424 25.6251 15.4155 25.625C16.0078 25.6218 16.5922 25.4896 17.128 25.2375L28.153 20.65C28.39 20.5561 28.5785 20.3699 28.6752 20.134C28.7719 19.8982 28.7684 19.6332 28.6655 19.4C28.4524 18.9649 27.9491 18.7561 27.4905 18.9125Z" fill="#666666"/>
</svg>
