<svg width="31" height="31" viewBox="0 0 31 31" fill="none" xmlns="http://www.w3.org/2000/svg">
<path d="M3.29063 12.4374L13.1906 17.4374C14.2003 17.9114 15.3685 17.9114 16.3781 17.4374L27.3656 12.4374C27.7635 12.2172 28.0105 11.7984 28.0105 11.3436C28.0105 10.8889 27.7635 10.47 27.3656 10.2499L16.3781 5.24987C15.8993 5.03258 15.379 4.9217 14.8531 4.92487C14.2765 4.92451 13.7076 5.05711 13.1906 5.31237L3.29063 10.3124C2.92286 10.5403 2.69911 10.9422 2.69911 11.3749C2.69911 11.8075 2.92286 12.2094 3.29063 12.4374Z" fill="#F07032"/>
<path d="M26.9656 15.4999L15.9031 20.1124C15.2266 20.4323 14.4422 20.4323 13.7656 20.1124L3.96563 15.4999C3.49258 15.2869 2.93611 15.4927 2.71563 15.9624C2.60983 16.1893 2.59919 16.4491 2.68606 16.6839C2.77294 16.9187 2.95012 17.109 3.17813 17.2124L12.9531 21.7499C13.5605 22.046 14.2274 22.1999 14.9031 22.1999C15.5065 22.2009 16.1032 22.073 16.6531 21.8249L27.6781 17.2374C28.1579 17.0406 28.3874 16.4922 28.1906 16.0124C27.9939 15.5326 27.4454 15.3031 26.9656 15.4999Z" fill="#F07032"/>
<path d="M26.9656 19.3499L15.9031 23.9624C15.2266 24.2823 14.4422 24.2823 13.7656 23.9624L3.96563 19.3624C3.65973 19.2217 3.30201 19.2549 3.02723 19.4495C2.75244 19.6441 2.60235 19.9705 2.63348 20.3057C2.6646 20.641 2.87223 20.9342 3.17813 21.0749L12.9531 25.5999C13.5597 25.8999 14.2265 26.058 14.9031 26.0624C15.5074 26.0591 16.104 25.927 16.6531 25.6749L27.6781 21.0874C27.9151 20.9935 28.1036 20.8072 28.2003 20.5714C28.297 20.3356 28.2935 20.0706 28.1906 19.8374C27.9848 19.3667 27.4386 19.1493 26.9656 19.3499Z" fill="#F07032"/>
</svg>
