<svg width="20" height="20" viewBox="0 0 20 20" fill="none" xmlns="http://www.w3.org/2000/svg">
<path d="M3.33341 16.6668C2.87508 16.6668 2.48286 16.5038 2.15675 16.1777C1.83064 15.8516 1.6673 15.4591 1.66675 15.0002V5.00016C1.66675 4.54183 1.83008 4.14961 2.15675 3.8235C2.48341 3.49738 2.87564 3.33405 3.33341 3.3335H16.6667C17.1251 3.3335 17.5176 3.49683 17.8442 3.8235C18.1709 4.15016 18.334 4.54238 18.3334 5.00016V15.0002C18.3334 15.4585 18.1704 15.851 17.8442 16.1777C17.5181 16.5043 17.1256 16.6674 16.6667 16.6668H3.33341ZM10.0001 10.8335L16.6667 6.66683V5.00016L10.0001 9.16683L3.33341 5.00016V6.66683L10.0001 10.8335Z" fill="#F0EBEB"/>
</svg>
