<svg width="16" height="17" viewBox="0 0 16 17" fill="none" xmlns="http://www.w3.org/2000/svg">
<path fill-rule="evenodd" clip-rule="evenodd" d="M4.72008 2.47324C5.21538 2.47339 5.66977 2.74808 5.90008 3.18657L7.21341 5.7199C7.42723 6.13262 7.41068 6.62691 7.16974 7.0244C6.92879 7.42189 6.49823 7.66522 6.03341 7.66657H3.40675C2.93719 7.67463 2.49802 7.43507 2.2506 7.03591C2.00317 6.63675 1.98398 6.13686 2.20008 5.7199L3.53341 3.18657C3.76484 2.74596 4.22239 2.47091 4.72008 2.47324ZM6.03341 6.6799C6.15043 6.68059 6.25923 6.61986 6.32008 6.5199V6.50657C6.38078 6.41562 6.39084 6.29997 6.34675 6.1999L5.01341 3.66657C4.96337 3.55997 4.85778 3.49044 4.74008 3.48657C4.61515 3.48219 4.49868 3.54949 4.44008 3.6599L3.10675 6.19324C3.05287 6.29721 3.05751 6.42183 3.11896 6.52151C3.1804 6.6212 3.28965 6.68132 3.40675 6.6799H6.03341Z" fill="#666666"/>
<path fill-rule="evenodd" clip-rule="evenodd" d="M13.9334 4.99992C13.9334 6.47268 12.7395 7.66659 11.2667 7.66659C9.79399 7.66659 8.60008 6.47268 8.60008 4.99992C8.60008 3.52716 9.79399 2.33325 11.2667 2.33325C12.7395 2.33325 13.9334 3.52716 13.9334 4.99992ZM12.9334 4.99992C12.9334 4.07944 12.1872 3.33325 11.2667 3.33325C10.8247 3.33325 10.4008 3.50885 10.0882 3.82141C9.77568 4.13397 9.60008 4.55789 9.60008 4.99992C9.60008 5.92039 10.3463 6.66659 11.2667 6.66659C12.1872 6.66659 12.9334 5.92039 12.9334 4.99992Z" fill="#666666"/>
<path fill-rule="evenodd" clip-rule="evenodd" d="M9.93341 8.99992H12.6001C13.3365 8.99992 13.9334 9.59687 13.9334 10.3333V12.9999C13.9334 13.7363 13.3365 14.3333 12.6001 14.3333H9.93341C9.19703 14.3333 8.60008 13.7363 8.60008 12.9999V10.3333C8.60008 9.59687 9.19703 8.99992 9.93341 8.99992ZM12.6001 13.3333C12.7842 13.3333 12.9334 13.184 12.9334 12.9999V10.3333C12.9334 10.1492 12.7842 9.99992 12.6001 9.99992H9.93341C9.74932 9.99992 9.60008 10.1492 9.60008 10.3333V12.9999C9.60008 13.184 9.74932 13.3333 9.93341 13.3333H12.6001Z" fill="#666666"/>
<path d="M7.07341 9.10659C6.98056 9.01129 6.85314 8.95754 6.72008 8.95754C6.58702 8.95754 6.45961 9.01129 6.36675 9.10659L4.72008 10.7533L3.07341 9.10659C2.87641 8.92301 2.56941 8.92843 2.379 9.11884C2.18859 9.30925 2.18318 9.61625 2.36675 9.81325L4.00008 11.4599L2.36675 13.1066C2.27145 13.1994 2.2177 13.3269 2.2177 13.4599C2.2177 13.593 2.27145 13.7204 2.36675 13.8133C2.46123 13.9058 2.58781 13.9584 2.72008 13.9599C2.85208 13.957 2.97818 13.9047 3.07341 13.8133L4.72008 12.1666L6.36675 13.8133C6.46123 13.9058 6.58781 13.9584 6.72008 13.9599C6.85208 13.957 6.97818 13.9047 7.07341 13.8133C7.26838 13.618 7.26838 13.3018 7.07341 13.1066L5.42675 11.4599L7.07341 9.81325C7.26838 9.61804 7.26838 9.3018 7.07341 9.10659Z" fill="#666666"/>
</svg>
